<svg width="49" height="49" viewBox="0 0 49 49" fill="none" xmlns="http://www.w3.org/2000/svg">
<rect x="0.10791" y="0.337952" width="48.3108" height="48.3108" rx="7.43243" fill="white"/>
<path d="M14.7095 24.6015C14.7095 24.191 15.0422 23.8582 15.4527 23.8582H31.4962L25.3326 17.6946C25.0423 17.4043 25.0423 16.9337 25.3326 16.6435C25.6228 16.3532 26.0934 16.3532 26.3837 16.6435L33.8161 24.0759C34.1064 24.3662 34.1064 24.8368 33.8161 25.127L26.3837 32.5594C26.0934 32.8497 25.6228 32.8497 25.3326 32.5594C25.0423 32.2692 25.0423 31.7986 25.3326 31.5083L31.4962 25.3447H15.4527C15.0422 25.3447 14.7095 25.0119 14.7095 24.6015Z" fill="black"/>
</svg>
