<svg width="26" height="17" viewBox="0 0 26 17" fill="none" xmlns="http://www.w3.org/2000/svg">
<rect y="0.21875" width="26" height="16" fill="#848895"/>
<path d="M10.3588 2.66455C9.85049 2.66455 8.31791 3.28628 8.04295 3.41053C7.76799 3.53478 7.4628 3.92265 7.1165 4.5628C6.76974 5.20295 6.49147 5.95129 6.03935 7.05207C5.5877 8.15284 5.48235 10.275 5.49747 10.9227C5.51258 11.5704 5.58676 12.0764 6.25053 12.4596C6.91383 12.8422 7.5006 13.2429 8.11807 13.4838C8.73602 13.7248 9.15743 13.8981 9.44373 13.6572C9.73002 13.4163 9.91852 12.9944 9.91852 12.9944C9.91852 12.9944 10.1897 12.6178 9.67758 12.392C9.16546 12.1657 8.9094 12.0075 8.9316 11.7741C8.95428 11.5407 8.9916 11.4127 9.11963 11.4429C9.24766 11.4731 9.54955 12.015 10.7094 12.2635C11.8692 12.512 12.9998 12.4747 12.9998 12.4747C12.9998 12.4747 14.1308 12.5125 15.2906 12.2635C16.4504 12.015 16.7518 11.4731 16.8799 11.4429C17.0079 11.4127 17.0452 11.5407 17.0679 11.7736C17.0906 12.0075 16.8345 12.1657 16.3224 12.392C15.8103 12.6178 16.0815 12.9944 16.0815 12.9944C16.0815 12.9944 16.27 13.4158 16.5563 13.6572C16.8421 13.8981 17.264 13.7248 17.8814 13.4838C18.4989 13.2429 19.0862 12.8427 19.7495 12.4596C20.4132 12.0764 20.4874 11.5704 20.5025 10.9227C20.5176 10.2755 20.4123 8.15284 19.9602 7.05207C19.5085 5.95129 19.2298 5.20295 18.883 4.5628C18.5372 3.92265 18.2315 3.53478 17.957 3.41006C17.6821 3.28628 16.149 2.66455 15.6407 2.66455C15.1323 2.66455 14.9821 3.01888 14.9821 3.01888L14.8049 3.41053C14.8049 3.41053 13.6144 3.18423 13.0078 3.18376C12.4012 3.18376 11.195 3.41053 11.195 3.41053L11.0179 3.01841C11.0179 3.01841 10.8676 2.66455 10.3588 2.66455ZM10.4141 7.36435H10.433C11.1743 7.36435 11.7747 8.013 11.7747 8.81284C11.7747 9.61314 11.1743 10.2613 10.433 10.2613C9.69175 10.2613 9.09129 9.61314 9.09129 8.81284C9.09082 8.02056 9.68042 7.37521 10.4141 7.36435ZM15.567 7.36435H15.5859C16.3196 7.37521 16.9087 8.02103 16.9087 8.81284C16.9087 9.61314 16.3082 10.2613 15.567 10.2613C14.8252 10.2613 14.2253 9.61314 14.2253 8.81284C14.2253 8.013 14.8252 7.36435 15.567 7.36435Z" fill="black"/>
</svg>
