<svg width="26" height="17" viewBox="0 0 26 17" fill="none" xmlns="http://www.w3.org/2000/svg">
<rect y="0.21875" width="26" height="16" fill="#848895"/>
<g clip-path="url(#clip0_34_564)">
<path fill-rule="evenodd" clip-rule="evenodd" d="M13 0.21875C8.58233 0.21875 5 3.89108 5 8.42108C5 12.0454 7.29233 15.1201 10.471 16.2044C10.871 16.2804 11.0177 16.0267 11.0177 15.8101C11.0177 15.6144 11.01 14.9684 11.0067 14.2831C8.781 14.7791 8.31133 13.3151 8.31133 13.3151C7.94733 12.3671 7.423 12.1151 7.423 12.1151C6.69733 11.6058 7.478 11.6164 7.478 11.6164C8.28133 11.6741 8.70433 12.4614 8.70433 12.4614C9.41767 13.7154 10.5757 13.3531 11.0323 13.1434C11.104 12.6134 11.3113 12.2514 11.54 12.0468C9.76333 11.8391 7.89533 11.1358 7.89533 7.99275C7.89533 7.09742 8.20767 6.36542 8.71967 5.79108C8.63633 5.58442 8.36267 4.75008 8.797 3.62042C8.797 3.62042 9.469 3.40008 10.9977 4.46108C11.6357 4.27942 12.3203 4.18842 13 4.18508C13.68 4.18842 14.365 4.27942 15.0043 4.46108C16.531 3.40008 17.202 3.62042 17.202 3.62042C17.6373 4.75042 17.3633 5.58442 17.2803 5.79108C17.7937 6.36542 18.1037 7.09742 18.1037 7.99275C18.1037 11.1434 16.2323 11.8371 14.4507 12.0401C14.7377 12.2948 14.9933 12.7938 14.9933 13.5591C14.9933 14.6564 14.9843 15.5398 14.9843 15.8101C14.9843 16.0284 15.1283 16.2841 15.5337 16.2034C18.7107 15.1178 21 12.0441 21 8.42108C21 3.89108 17.4183 0.21875 13 0.21875Z" fill="black"/>
<path fill-rule="evenodd" clip-rule="evenodd" d="M8.03005 11.9957C8.01239 12.0367 7.95005 12.0487 7.89305 12.0207C7.83505 11.9941 7.80239 11.9384 7.82106 11.8974C7.83839 11.8554 7.90105 11.8441 7.95905 11.8717C8.01705 11.8987 8.05005 11.9551 8.03005 11.9957ZM8.35406 12.3664C8.31605 12.4024 8.24139 12.3857 8.19072 12.3284C8.13839 12.2711 8.12872 12.1947 8.16739 12.1581C8.20672 12.1214 8.27906 12.1387 8.33139 12.1957C8.38372 12.2537 8.39406 12.3297 8.35406 12.3664ZM8.66939 12.8387C8.62072 12.8737 8.54039 12.8411 8.49072 12.7681C8.44172 12.6947 8.44172 12.6074 8.49205 12.5724C8.54172 12.5374 8.62039 12.5691 8.67072 12.6414C8.71972 12.7154 8.71972 12.8031 8.66939 12.8387ZM9.10172 13.2954C9.05772 13.3447 8.96439 13.3314 8.89605 13.2637C8.82605 13.1977 8.80672 13.1037 8.85072 13.0541C8.89505 13.0044 8.98906 13.0184 9.05772 13.0854C9.12739 13.1514 9.14839 13.2461 9.10172 13.2954ZM9.69772 13.5601C9.67839 13.6244 9.58839 13.6534 9.49772 13.6264C9.40772 13.5981 9.34839 13.5231 9.36639 13.4581C9.38539 13.3934 9.47572 13.3627 9.56705 13.3921C9.65706 13.4201 9.71672 13.4947 9.69772 13.5601ZM10.3527 13.6094C10.3547 13.6771 10.2781 13.7327 10.1827 13.7341C10.0871 13.7364 10.0097 13.6817 10.0087 13.6151C10.0087 13.5467 10.0841 13.4914 10.1794 13.4897C10.2747 13.4877 10.3527 13.5421 10.3527 13.6094ZM10.9617 13.5031C10.9731 13.5691 10.9071 13.6367 10.8127 13.6547C10.7197 13.6721 10.6337 13.6314 10.6221 13.5661C10.6104 13.4984 10.6777 13.4304 10.7704 13.4127C10.8651 13.3961 10.9497 13.4364 10.9617 13.5031Z" fill="black"/>
</g>
<defs>
<clipPath id="clip0_34_564">
<rect width="16" height="16" fill="white" transform="translate(5 0.21875)"/>
</clipPath>
</defs>
</svg>
