<svg width="179" height="80" viewBox="0 0 179 80" fill="none" xmlns="http://www.w3.org/2000/svg">
<g filter="url(#filter0_f_11_64)">
<path d="M30.399 49V31.1349H38.7701C40.9139 31.1349 42.5473 31.5602 43.6703 32.4109C44.7932 33.2447 45.3547 34.3676 45.3547 35.7798C45.3547 36.7326 45.1335 37.5493 44.6911 38.2299C44.2488 38.8934 43.6533 39.4124 42.9046 39.7867C42.173 40.144 41.3733 40.3227 40.5056 40.3227L40.965 39.4039C41.9688 39.4039 42.8706 39.591 43.6703 39.9653C44.4699 40.3227 45.0995 40.8501 45.5589 41.5477C46.0353 42.2453 46.2735 43.113 46.2735 44.1509C46.2735 45.6822 45.6865 46.8732 44.5125 47.7239C43.3385 48.5746 41.5945 49 39.2806 49H30.399ZM33.7168 46.3968H39.0764C40.3184 46.3968 41.2712 46.1926 41.9348 45.7843C42.5984 45.3759 42.9301 44.7209 42.9301 43.8191C42.9301 42.9344 42.5984 42.2878 41.9348 41.8795C41.2712 41.4541 40.3184 41.2414 39.0764 41.2414H33.4616V38.6637H38.4128C39.5698 38.6637 40.4545 38.4596 41.0671 38.0512C41.6966 37.6429 42.0114 37.0304 42.0114 36.2137C42.0114 35.38 41.6966 34.7589 41.0671 34.3506C40.4545 33.9422 39.5698 33.7381 38.4128 33.7381H33.7168V46.3968ZM54.9187 49V31.1349H58.2365V46.1926H67.5774V49H54.9187ZM75.3011 49V31.1349H78.6189V49H75.3011ZM92.1795 49V33.9422H86.2585V31.1349H101.418V33.9422H95.4973V49H92.1795ZM117.032 49.2552C115.671 49.2552 114.404 49.034 113.23 48.5917C112.073 48.1323 111.06 47.4942 110.193 46.6775C109.342 45.8438 108.678 44.8655 108.202 43.7425C107.725 42.6196 107.487 41.3946 107.487 40.0674C107.487 38.7403 107.725 37.5153 108.202 36.3923C108.678 35.2694 109.35 34.2995 110.218 33.4829C111.086 32.6492 112.098 32.0111 113.255 31.5687C114.412 31.1093 115.68 30.8797 117.058 30.8797C118.521 30.8797 119.857 31.1349 121.065 31.6453C122.273 32.1387 123.294 32.8788 124.127 33.8657L121.984 35.8819C121.337 35.1843 120.614 34.6654 119.814 34.3251C119.015 33.9678 118.147 33.7891 117.211 33.7891C116.275 33.7891 115.416 33.9422 114.633 34.2485C113.868 34.5548 113.196 34.9886 112.617 35.5501C112.056 36.1116 111.613 36.7751 111.29 37.5408C110.984 38.3064 110.831 39.1487 110.831 40.0674C110.831 40.9862 110.984 41.8284 111.29 42.5941C111.613 43.3597 112.056 44.0233 112.617 44.5848C113.196 45.1462 113.868 45.5801 114.633 45.8864C115.416 46.1926 116.275 46.3458 117.211 46.3458C118.147 46.3458 119.015 46.1756 119.814 45.8353C120.614 45.478 121.337 44.9421 121.984 44.2275L124.127 46.2692C123.294 47.239 122.273 47.9791 121.065 48.4896C119.857 49 118.513 49.2552 117.032 49.2552ZM144.967 31.1349H148.285V49H144.967V31.1349ZM135.729 49H132.411V31.1349H135.729V49ZM145.223 41.3435H135.448V38.5106H145.223V41.3435Z" fill="#D37015"/>
</g>
<path d="M29.4547 49V31.1349H38.9998C41.4669 31.1349 43.2874 31.5772 44.4614 32.462C45.6354 33.3297 46.2224 34.4442 46.2224 35.8053C46.2224 36.7071 45.9672 37.5153 45.4568 38.2299C44.9634 38.9275 44.2403 39.4804 43.2874 39.8888C42.3346 40.2971 41.1606 40.5013 39.7655 40.5013L40.2759 39.1231C41.6711 39.1231 42.8706 39.3188 43.8744 39.7101C44.8953 40.1015 45.678 40.6714 46.2224 41.4201C46.7839 42.1517 47.0646 43.0364 47.0646 44.0743C47.0646 45.6226 46.4181 46.8307 45.125 47.6984C43.8489 48.5661 41.9773 49 39.5102 49H29.4547ZM35.3757 44.7889H38.9998C39.6634 44.7889 40.1568 44.6698 40.4801 44.4316C40.8204 44.1934 40.9905 43.8446 40.9905 43.3852C40.9905 42.9259 40.8204 42.5771 40.4801 42.3389C40.1568 42.1007 39.6634 41.9816 38.9998 41.9816H34.9674V38.0002H38.1831C38.8637 38.0002 39.3571 37.8896 39.6634 37.6684C39.9867 37.4302 40.1483 37.0984 40.1483 36.6731C40.1483 36.2307 39.9867 35.8989 39.6634 35.6777C39.3571 35.4565 38.8637 35.3459 38.1831 35.3459H35.3757V44.7889ZM54.2984 49V31.1349H60.3215V44.3295H68.3864V49H54.2984ZM80.667 37.7705H88.6298V42.1092H80.667V37.7705ZM81.0754 44.4572H90.008V49H75.1544V31.1349H89.6762V35.6777H81.0754V44.4572ZM95.4913 49L103.301 31.1349H109.222L117.032 49H110.804L105.036 33.9933H107.384L101.616 49H95.4913ZM100.136 45.8864L101.668 41.5477H109.885L111.417 45.8864H100.136ZM132.087 49.4083C130.658 49.4083 129.33 49.1872 128.105 48.7448C126.897 48.2854 125.842 47.6388 124.941 46.8051C124.056 45.9714 123.367 44.9846 122.873 43.8446C122.38 42.7047 122.133 41.4456 122.133 40.0674C122.133 38.6893 122.38 37.4302 122.873 36.2902C123.367 35.1503 124.056 34.1634 124.941 33.3297C125.842 32.496 126.897 31.858 128.105 31.4156C129.33 30.9562 130.658 30.7265 132.087 30.7265C133.839 30.7265 135.388 31.0328 136.732 31.6453C138.093 32.2578 139.216 33.1426 140.101 34.2995L136.298 37.6939C135.77 37.0304 135.183 36.5199 134.537 36.1626C133.907 35.7883 133.193 35.6012 132.393 35.6012C131.763 35.6012 131.193 35.7032 130.683 35.9074C130.173 36.1116 129.73 36.4093 129.356 36.8007C128.999 37.192 128.718 37.6684 128.514 38.2299C128.31 38.7743 128.207 39.3869 128.207 40.0674C128.207 40.748 128.31 41.369 128.514 41.9305C128.718 42.475 128.999 42.9429 129.356 43.3342C129.73 43.7255 130.173 44.0233 130.683 44.2275C131.193 44.4316 131.763 44.5337 132.393 44.5337C133.193 44.5337 133.907 44.3551 134.537 43.9978C135.183 43.6234 135.77 43.1045 136.298 42.4409L140.101 45.8353C139.216 46.9753 138.093 47.86 136.732 48.4896C135.388 49.1021 133.839 49.4083 132.087 49.4083ZM158.531 31.1349H164.554V49H158.531V31.1349ZM152.967 49H146.944V31.1349H152.967V49ZM158.939 42.4154H152.559V37.4642H158.939V42.4154Z" fill="white"/>
<defs>
<filter id="filter0_f_11_64" x="0.398926" y="0.879639" width="177.886" height="78.3756" filterUnits="userSpaceOnUse" color-interpolation-filters="sRGB">
<feFlood flood-opacity="0" result="BackgroundImageFix"/>
<feBlend mode="normal" in="SourceGraphic" in2="BackgroundImageFix" result="shape"/>
<feGaussianBlur stdDeviation="15" result="effect1_foregroundBlur_11_64"/>
</filter>
</defs>
</svg>
