<svg width="26" height="17" viewBox="0 0 26 17" fill="none" xmlns="http://www.w3.org/2000/svg">
<g clip-path="url(#clip0_34_577)">
<rect y="0.21875" width="26" height="16" rx="8" fill="white"/>
<rect y="0.21875" width="26" height="16" fill="#848895"/>
<path d="M19.9694 8.24585C19.969 7.82014 19.7997 7.412 19.4986 7.11098C19.1976 6.80996 18.7895 6.64065 18.3638 6.6402C17.9739 6.63974 17.5975 6.78221 17.3056 7.04063C16.2437 6.36112 14.8268 5.93304 13.2641 5.88677L14.2204 2.61622L16.5682 3.05248C16.5682 3.07167 16.5643 3.08973 16.5654 3.10892C16.5794 3.37755 16.6994 3.62966 16.8991 3.80995C17.0987 3.99024 17.3617 4.08398 17.6304 4.07061C17.899 4.05652 18.151 3.9365 18.3312 3.73686C18.5115 3.53722 18.6052 3.27426 18.5918 3.00564C18.5778 2.737 18.4578 2.48489 18.2581 2.3046C18.0585 2.12432 17.7955 2.03058 17.5268 2.04394C17.3557 2.05305 17.1896 2.10547 17.0443 2.19629C16.8989 2.2871 16.779 2.41334 16.6958 2.56317L16.6949 2.56288L13.8657 2.03717L12.7389 5.8862C11.1722 5.92768 9.75087 6.3535 8.68449 7.0316C8.39385 6.77869 8.02143 6.63965 7.63616 6.6402C7.21048 6.64073 6.80238 6.81006 6.50138 7.11106C6.20037 7.41207 6.03104 7.82016 6.03052 8.24585C6.03052 8.79329 6.31242 9.29841 6.769 9.59301C6.74046 9.75418 6.72583 9.91751 6.72526 10.0812C6.72526 12.3985 9.53472 14.2841 12.9881 14.2841C16.4415 14.2841 19.2504 12.3985 19.2504 10.0809C19.2504 9.92063 19.2357 9.7626 19.2095 9.60684C19.4413 9.46316 19.6326 9.26281 19.7655 9.0247C19.8984 8.78658 19.9688 8.51854 19.9694 8.24585ZM10.0116 9.33848C10.0116 9.2089 10.0372 9.08061 10.0868 8.96092C10.1364 8.84122 10.2092 8.73247 10.3008 8.64088C10.3924 8.54929 10.5012 8.47664 10.621 8.42709C10.7407 8.37754 10.869 8.35205 10.9986 8.35209C11.1281 8.35213 11.2564 8.37769 11.3761 8.4273C11.4958 8.47692 11.6046 8.54963 11.6962 8.64128C11.7878 8.73293 11.8604 8.84172 11.9099 8.96144C11.9595 9.08116 11.985 9.20947 11.9849 9.33904C11.9849 9.60072 11.8808 9.85165 11.6958 10.0366C11.5107 10.2216 11.2597 10.3255 10.998 10.3254C10.7363 10.3253 10.4854 10.2213 10.3004 10.0362C10.1154 9.85115 10.0115 9.60016 10.0116 9.33848ZM15.3139 12.0074C15.2846 12.0379 14.5765 12.7583 12.9765 12.7583C11.3681 12.7583 10.7247 12.028 10.6985 11.997C10.6578 11.946 10.6384 11.8813 10.6444 11.8163C10.6504 11.7514 10.6813 11.6913 10.7307 11.6487C10.78 11.606 10.844 11.5842 10.9091 11.5877C10.9742 11.5911 11.0355 11.6197 11.08 11.6674C11.0946 11.6832 11.6314 12.254 12.9763 12.254C14.3449 12.254 14.9448 11.6628 14.951 11.6572C14.9984 11.6139 15.0606 11.5902 15.1248 11.5911C15.189 11.5919 15.2505 11.6172 15.2967 11.6618C15.343 11.7064 15.3705 11.7669 15.3737 11.8311C15.3769 11.8952 15.3555 11.9584 15.3139 12.0074ZM15.1178 10.3253C14.9882 10.3253 14.8599 10.2999 14.7402 10.2504C14.6205 10.2008 14.5117 10.1282 14.4201 10.0366C14.3284 9.94507 14.2557 9.83635 14.2061 9.71668C14.1565 9.59701 14.1309 9.46873 14.1308 9.33918C14.1308 9.20963 14.1562 9.08133 14.2058 8.96162C14.2553 8.84191 14.3279 8.73312 14.4195 8.64148C14.5111 8.54983 14.6198 8.47712 14.7394 8.42749C14.8591 8.37786 14.9874 8.35229 15.1169 8.35223C15.3786 8.35212 15.6296 8.45595 15.8146 8.64088C15.9997 8.82581 16.1038 9.07669 16.1039 9.33834C16.104 9.59998 16.0002 9.85095 15.8152 10.036C15.6303 10.2211 15.3794 10.3252 15.1178 10.3253Z" fill="black"/>
</g>
<defs>
<clipPath id="clip0_34_577">
<rect y="0.21875" width="26" height="16" rx="8" fill="white"/>
</clipPath>
</defs>
</svg>
