<svg width="26" height="17" viewBox="0 0 26 17" fill="none" xmlns="http://www.w3.org/2000/svg">
<rect y="0.21875" width="26" height="16" fill="#848895"/>
<path d="M19.9116 4.47045C19.3912 4.70146 18.8389 4.85283 18.2733 4.91946C18.8692 4.56323 19.3151 4.00223 19.5275 3.34128C18.9677 3.67372 18.3551 3.90796 17.7162 4.03385C17.4494 3.74909 17.1269 3.52219 16.7688 3.36723C16.4107 3.21226 16.0245 3.13254 15.6343 3.133C14.0592 3.133 12.7822 4.41005 12.7822 5.98541C12.7822 6.20865 12.8073 6.42624 12.8561 6.63537C10.4854 6.51627 8.38344 5.38089 6.97657 3.65511C6.72282 4.09044 6.58956 4.58548 6.59049 5.08936C6.59049 6.07883 7.09397 6.95202 7.85936 7.46341C7.40639 7.44904 6.96342 7.32663 6.56734 7.1064L6.56706 7.14252C6.56706 8.52428 7.55032 9.67687 8.85532 9.93934C8.43512 10.0531 7.99454 10.0697 7.56697 9.98788C7.93019 11.121 8.98345 11.9459 10.2314 11.9688C9.22113 12.7619 7.97338 13.192 6.68898 13.19C6.45897 13.19 6.23178 13.1764 6.00854 13.1499C7.31271 13.9881 8.83069 14.4331 10.381 14.4315C15.6278 14.4315 18.4966 10.0852 18.4966 6.31589C18.4966 6.19228 18.494 6.06895 18.4887 5.94647C19.0472 5.54323 19.5291 5.04336 19.9116 4.47045Z" fill="black"/>
</svg>
