<svg width="56" height="38" viewBox="0 0 56 38" fill="none" xmlns="http://www.w3.org/2000/svg">
<g filter="url(#filter0_b_26_145)">
<g filter="url(#filter1_b_26_145)">
<rect x="0.837402" y="0.270386" width="55" height="37.1622" rx="7.43243" fill="white"/>
<path d="M30.1691 11.9426C30.2351 11.8588 30.3579 11.8476 30.4379 11.9182L31.1225 12.5218L28.9669 15.2163H30.3946L31.9596 13.2601L33.1876 14.3429C33.2631 14.4095 33.2718 14.5241 33.2073 14.6014L32.6935 15.2163H34.1386C34.5057 14.6804 34.4219 13.945 33.925 13.5067L31.1753 11.082C30.6153 10.5882 29.7554 10.6661 29.2933 11.2526L26.1708 15.2163H27.59L30.1691 11.9426ZM31.577 20.419C31.2691 20.419 31.0195 20.6686 31.0195 20.9764C31.0195 21.2843 31.2691 21.5339 31.577 21.5339H33.0635C33.3713 21.5339 33.6209 21.2843 33.6209 20.9764C33.6209 20.6686 33.3713 20.419 33.0635 20.419H31.577ZM22.8439 15.4021C22.8439 15.0942 23.0934 14.8447 23.4013 14.8447H25.7265L26.6121 13.7298H23.4013C22.4777 13.7298 21.729 14.4785 21.729 15.4021V23.2062C21.729 24.5402 22.8105 25.6217 24.1445 25.6217H33.0635C34.3975 25.6217 35.479 24.5402 35.479 23.2062V18.3751C35.479 17.041 34.3975 15.9595 33.0635 15.9595L23.4013 15.9595C23.0934 15.9595 22.8439 15.71 22.8439 15.4021ZM22.8439 23.2062V16.9792C23.0182 17.0409 23.2058 17.0744 23.4013 17.0744H33.0635C33.7818 17.0744 34.3641 17.6567 34.3641 18.3751V23.2062C34.3641 23.9245 33.7818 24.5068 33.0635 24.5068H24.1445C23.4262 24.5068 22.8439 23.9245 22.8439 23.2062Z" fill="#242424"/>
</g>
</g>
<defs>
<filter id="filter0_b_26_145" x="-7.33827" y="-7.90529" width="71.3514" height="53.5135" filterUnits="userSpaceOnUse" color-interpolation-filters="sRGB">
<feFlood flood-opacity="0" result="BackgroundImageFix"/>
<feGaussianBlur in="BackgroundImageFix" stdDeviation="4.08784"/>
<feComposite in2="SourceAlpha" operator="in" result="effect1_backgroundBlur_26_145"/>
<feBlend mode="normal" in="SourceGraphic" in2="effect1_backgroundBlur_26_145" result="shape"/>
</filter>
<filter id="filter1_b_26_145" x="-28.8923" y="-29.4593" width="114.459" height="96.6216" filterUnits="userSpaceOnUse" color-interpolation-filters="sRGB">
<feFlood flood-opacity="0" result="BackgroundImageFix"/>
<feGaussianBlur in="BackgroundImageFix" stdDeviation="14.8649"/>
<feComposite in2="SourceAlpha" operator="in" result="effect1_backgroundBlur_26_145"/>
<feBlend mode="normal" in="SourceGraphic" in2="effect1_backgroundBlur_26_145" result="shape"/>
</filter>
</defs>
</svg>
