<svg width="26" height="17" viewBox="0 0 26 17" fill="none" xmlns="http://www.w3.org/2000/svg">
<rect y="0.21875" width="26" height="16" fill="#848895"/>
<path d="M20.5333 5.0854C20.5333 4.95206 20.3333 3.8854 19.8666 3.41873C19.2666 2.75206 18.5999 2.6854 18.2666 2.6854H18.1999C16.1333 2.55206 13.0666 2.55206 12.9999 2.55206C12.9999 2.55206 9.86659 2.55206 7.79992 2.6854H7.73325C7.39992 2.6854 6.73325 2.75206 6.13325 3.41873C5.66659 3.95206 5.46659 5.01873 5.46659 5.15206C5.46659 5.21873 5.33325 6.41873 5.33325 7.6854V8.81873C5.33325 10.0854 5.46659 11.2854 5.46659 11.3521C5.46659 11.4854 5.66659 12.5521 6.13325 13.0187C6.66659 13.6187 7.33325 13.6854 7.73325 13.7521H7.93325C9.13325 13.8854 12.7999 13.8854 12.9333 13.8854C12.9333 13.8854 16.0666 13.8854 18.1333 13.7521H18.1999C18.5333 13.6854 19.1999 13.6187 19.7999 13.0187C20.2666 12.4854 20.4666 11.4187 20.4666 11.2854C20.4666 11.2187 20.5999 10.0187 20.5999 8.75206V7.61873C20.6666 6.41873 20.5333 5.15206 20.5333 5.0854ZM15.5999 8.35206L11.5999 10.4854C11.5333 10.4854 11.5333 10.5521 11.4666 10.5521C11.3999 10.5521 11.3333 10.5521 11.3333 10.4854C11.2666 10.4187 11.1999 10.3521 11.1999 10.2187V5.8854C11.1999 5.75206 11.2666 5.6854 11.3333 5.61873C11.3999 5.55206 11.5333 5.55206 11.6666 5.61873L15.6666 7.75206C15.7999 7.81873 15.8666 7.8854 15.8666 8.01873C15.8666 8.15206 15.7333 8.2854 15.5999 8.35206Z" fill="black"/>
</svg>
